# xmcd CD database file
#
# Track frame offsets:
#	151
#	23572
#	43522
#	73580
#	120566
#	143581
#	169134
#	198744
#	227611
#
# Disc length: 4115 seconds
#
# Revision: 1
# Processed by: cddbd v1.5.2PL0 Copyright (c) Steve Scherf et al.
# Submitted via: CDex 1.51
#
DISCID=73101109
DTITLE=Esbjorn Svensson Trio - Strange Place For Snow [2002]
DYEAR=2002
DGENRE=Jazz
TTITLE0=The Message
TTITLE1=Serenade For The Renegade
TTITLE2=Strange Place For Snow
TTITLE3=Behind The Yashmak
TTITLE4=Bound For The Beauty Of The South
TTITLE5=Years Of Yearning
TTITLE6=When God Created The Coffeebreak
TTITLE7=Spunky Sprawl
TTITLE8=Carcrash
EXTD=YEAR: 2002
EXTT0=
EXTT1=
EXTT2=
EXTT3=
EXTT4=
EXTT5=
EXTT6=
EXTT7=
EXTT8=
PLAYORDER=
